<?xml version="1.0" standalone="no"?>
<!DOCTYPE svg PUBLIC "-//W3C//DTD SVG 20010904//EN"
 "http://www.w3.org/TR/2001/REC-SVG-20010904/DTD/svg10.dtd">
<svg version="1.0" xmlns="http://www.w3.org/2000/svg"
 width="500.000000pt" height="500.000000pt" viewBox="0 0 500.000000 500.000000"
 preserveAspectRatio="xMidYMid meet">

<g transform="translate(0.000000,500.000000) scale(0.100000,-0.100000)"
fill="#000000" stroke="none">
<path d="M2310 3486 c0 -21 97 -63 200 -87 73 -18 344 -17 485 0 146 18 380
11 452 -14 145 -50 184 -176 83 -273 -39 -38 -143 -96 -161 -90 -6 2 10 17 34
34 44 32 87 100 87 141 0 29 -40 84 -77 106 -93 54 -276 62 -588 27 -385 -44
-625 -12 -807 106 -35 24 -50 8 -18 -18 68 -55 188 -100 332 -124 119 -20 317
-15 533 12 182 23 393 24 467 1 108 -33 148 -93 110 -165 -15 -29 -26 -37 -48
-39 -244 -16 -275 -16 -287 2 -12 16 -17 16 -67 1 -76 -23 -110 -21 -110 4 0
24 -4 24 -77 3 -47 -13 -124 -17 -403 -22 -298 -5 -349 -8 -375 -23 -16 -9
-47 -20 -68 -23 -80 -13 -257 -127 -379 -245 -46 -44 -58 -62 -58 -86 0 -18
-8 -38 -20 -49 -43 -39 -69 -153 -86 -367 l-6 -87 36 -37 c26 -26 36 -46 36
-68 0 -41 57 -158 122 -252 63 -93 100 -125 138 -122 18 1 38 -6 52 -19 38
-34 127 -79 225 -113 87 -30 94 -31 117 -17 21 14 50 15 208 10 194 -6 187 -8
221 38 8 11 76 32 192 58 99 24 185 44 192 46 19 6 133 148 133 166 0 15 -24
29 -77 44 -21 6 -20 8 23 88 45 84 54 117 32 117 -7 0 -67 -7 -133 -16 l-120
-17 -110 -81 c-60 -44 -112 -83 -115 -86 -3 -3 -31 -24 -62 -48 -56 -43 -57
-43 -88 -27 -55 29 -123 45 -187 45 -51 0 -63 3 -67 18 -7 20 -65 56 -108 66
-21 5 -28 12 -28 30 0 13 -3 37 -6 53 -5 26 -2 32 31 51 36 22 125 31 125 14
0 -17 73 -93 81 -85 5 5 -1 38 -12 76 -17 52 -27 68 -48 77 -26 10 -25 10 4 4
17 -3 35 -13 40 -22 6 -9 21 -37 35 -61 47 -84 66 -53 34 55 -15 54 -36 84
-56 84 -6 0 -9 2 -6 5 3 3 16 1 30 -4 17 -6 35 -31 56 -75 17 -36 36 -66 42
-66 14 0 13 84 -2 132 -8 28 -24 48 -52 67 -58 40 -122 71 -146 71 -26 0 -25
9 5 43 38 43 79 37 198 -30 l101 -57 113 3 113 3 65 -46 c92 -64 123 -61 68 6
-89 107 -112 117 -255 118 -64 0 -94 5 -117 18 -17 9 -31 20 -31 23 0 17 58
15 99 -3 41 -18 59 -19 162 -14 l115 6 75 -55 c77 -57 84 -61 93 -46 7 11 -22
51 -88 119 l-50 52 -101 0 -100 0 100 48 c55 27 142 75 194 107 51 32 126 70
166 86 109 42 181 80 268 144 80 58 93 83 42 77 -26 -4 -28 -2 -16 12 7 9 19
16 25 16 7 0 33 21 59 47 89 89 95 185 15 265 -81 81 -260 103 -581 73 -304
-29 -484 -13 -614 54 -50 25 -53 25 -53 7z m596 -411 c18 -18 59 -19 121 -4
37 10 47 9 54 -2 6 -11 32 -13 111 -11 57 1 117 5 133 8 25 4 21 -1 -27 -32
-87 -55 -79 -67 40 -58 88 6 96 6 84 -9 -22 -26 -160 -102 -252 -138 -47 -19
-123 -57 -169 -86 -236 -147 -483 -233 -667 -233 -57 0 -72 4 -120 35 -146 94
-180 152 -171 298 6 104 19 155 46 189 l19 23 319 2 c230 2 335 6 378 16 81
19 84 19 101 2z m-871 -72 c-16 -39 -34 -141 -35 -194 0 -122 47 -202 165
-279 l66 -43 -23 -25 c-46 -50 -100 -82 -137 -82 -51 0 -183 49 -266 97 -118
69 -216 189 -201 246 3 15 45 57 107 108 116 97 172 134 249 166 68 28 85 29
75 6z m-375 -457 c97 -103 221 -173 358 -201 29 -6 32 -10 32 -44 0 -21 -5
-51 -10 -68 l-11 -29 -158 -13 c-86 -7 -199 -14 -250 -14 -86 -1 -95 1 -112
22 -16 19 -18 34 -13 99 12 175 37 304 67 341 9 11 14 9 27 -10 8 -13 40 -50
70 -83z m1242 -34 c4 -4 -16 -6 -45 -4 -29 2 -84 -1 -123 -5 -49 -6 -79 -5
-99 3 -15 6 -23 13 -17 15 19 7 276 -2 284 -9z m-357 -89 c11 -7 50 -14 90
-15 l70 -2 -70 -5 c-67 -6 -73 -5 -147 34 -47 24 -72 42 -65 47 10 6 65 -20
122 -59z m-248 -69 c91 -47 101 -60 24 -29 -35 13 -80 28 -100 31 -44 8 -53
13 -46 25 12 18 54 9 122 -27z m-149 -10 c27 -8 29 -21 2 -28 -11 -3 -29 -9
-40 -12 -15 -4 -20 -1 -20 14 0 18 11 29 30 31 3 0 15 -2 28 -5z m120 -74 c34
-16 62 -32 62 -35 0 -3 -13 1 -29 9 -51 27 -105 30 -160 10 -50 -17 -69 -16
-57 5 6 10 86 39 111 40 6 1 38 -12 73 -29z m-30 -76 c17 -7 32 -19 32 -26 0
-10 -2 -10 -9 1 -5 7 -29 17 -55 22 -40 7 -52 5 -91 -16 -28 -16 -46 -21 -50
-14 -8 13 -10 12 40 37 42 22 71 22 133 -4z m-207 -61 c30 -77 27 -84 -62
-189 -133 -155 -153 -174 -187 -174 -26 0 -37 10 -80 68 -68 92 -130 208 -138
260 l-7 42 104 1 c90 1 309 12 347 17 7 1 17 -10 23 -25z m1039 -33 c0 -5 -2
-10 -4 -10 -3 0 -8 5 -11 10 -3 6 -1 10 4 10 6 0 11 -4 11 -10z m-136 -57 c-8
-25 -15 -47 -17 -48 -1 -1 -55 -33 -119 -71 -64 -37 -112 -71 -107 -75 7 -4 4
-9 -5 -12 -9 -4 -16 -1 -16 6 -1 7 -7 1 -15 -13 -8 -14 -14 -19 -15 -11 0 8
-7 5 -18 -9 l-19 -23 -26 23 c-15 13 -27 27 -27 31 0 4 72 61 160 128 141 106
165 121 199 121 l39 0 -14 -47z m120 38 c3 -5 -1 -14 -8 -20 -12 -10 -14 -9
-11 6 2 10 4 19 4 21 2 5 10 2 15 -7z m-14 -45 c0 -2 -6 -9 -14 -15 -11 -9
-16 -9 -22 0 -4 7 -3 9 4 5 6 -3 13 -2 17 4 6 10 15 14 15 6z m-37 -51 c-3 -9
-8 -14 -10 -11 -3 3 -2 9 2 15 9 16 15 13 8 -4z m-881 -25 c23 -11 48 -20 55
-20 7 0 13 -4 13 -10 0 -5 -7 -6 -17 -3 -11 5 -14 3 -8 -6 6 -10 3 -11 -13 -2
-31 17 -50 13 -24 -5 12 -8 32 -14 45 -12 22 3 22 1 25 -125 3 -140 -4 -167
-44 -167 -55 0 -304 113 -304 139 0 10 190 206 199 206 5 0 13 4 18 9 5 5 3 6
-4 2 -7 -4 -13 -2 -13 3 0 17 27 13 72 -9z m762 -22 c-3 -4 -12 -4 -21 -1 -10
4 -14 2 -10 -4 7 -11 -22 -28 -31 -18 -3 3 0 5 7 5 7 0 10 4 7 9 -4 5 0 11 6
14 19 7 47 4 42 -5z m66 -28 c0 -5 -5 -10 -11 -10 -5 0 -7 5 -4 10 3 6 8 10
11 10 2 0 4 -4 4 -10z m123 -27 c-3 -7 -8 -13 -12 -13 -4 0 -8 6 -8 13 0 8 6
14 13 14 7 0 10 -6 7 -14z m-690 -8 c137 -36 234 -142 199 -219 -14 -31 -49
-37 -185 -30 -173 8 -157 -6 -157 133 0 65 3 121 7 124 11 12 76 8 136 -8z
m382 5 c-3 -5 -12 -10 -18 -10 -7 0 -6 4 3 10 19 12 23 12 15 0z m125 -7 c0
-13 -29 -32 -35 -23 -3 5 -1 10 5 10 6 0 9 4 6 8 -3 5 1 9 9 9 8 0 15 -2 15
-4z m-50 -17 c0 -3 -4 -8 -10 -11 -5 -3 -10 -1 -10 4 0 6 5 11 10 11 6 0 10
-2 10 -4z m-15 -26 c6 0 2 -5 -8 -11 -9 -6 -14 -16 -11 -22 4 -7 3 -8 -2 -4
-5 5 -9 12 -9 15 0 4 -4 12 -8 19 -4 7 -1 10 10 8 10 -2 23 -4 28 -5z m195 -9
c0 -5 -9 -19 -20 -32 l-20 -24 17 32 c19 34 23 39 23 24z m-254 -13 c4 -6 3
-8 -3 -5 -6 4 -19 0 -29 -8 -10 -8 -26 -14 -34 -14 -8 0 1 8 20 19 42 23 37
22 46 8z m119 -17 c-3 -6 3 -14 12 -20 16 -9 16 -10 -3 -8 -14 1 -21 7 -19 17
5 21 4 20 11 20 3 0 3 -4 -1 -9z m-225 -46 c-9 -23 -8 -24 19 -19 21 4 28 2
28 -10 0 -9 -4 -16 -9 -16 -4 0 -8 5 -8 10 0 6 -5 10 -11 10 -5 0 -7 -5 -3
-12 5 -8 2 -9 -10 -5 -10 4 -21 7 -26 7 -16 0 -18 40 -2 50 27 15 32 12 22
-15z m34 13 c-5 -8 -2 -9 10 -5 10 4 15 3 11 -3 -10 -15 -35 -12 -35 5 0 8 5
15 11 15 5 0 7 -5 3 -12z"/>
<path d="M3015 3006 c-31 -31 -32 -50 -1 -81 22 -22 29 -23 53 -14 33 12 43
26 43 60 0 29 -12 43 -47 53 -17 5 -29 1 -48 -18z"/>
<path d="M1981 1871 c-8 -5 -9 -11 -3 -15 5 -3 12 1 16 9 6 17 6 18 -13 6z"/>
<path d="M2011 1861 c-11 -7 -9 -10 9 -16 12 -4 27 -2 32 3 8 8 4 9 -13 6 -19
-5 -21 -4 -9 5 18 13 1 15 -19 2z"/>
<path d="M2119 1861 c7 -5 11 -13 7 -19 -6 -10 15 -22 40 -22 23 0 16 26 -11
38 -31 14 -57 16 -36 3z m41 -21 c0 -5 -4 -10 -10 -10 -5 0 -10 5 -10 10 0 6
5 10 10 10 6 0 10 -4 10 -10z"/>
<path d="M2075 1840 c-3 -6 1 -7 9 -4 18 7 21 14 7 14 -6 0 -13 -4 -16 -10z"/>
<path d="M2098 1813 c7 -3 16 -2 19 1 4 3 -2 6 -13 5 -11 0 -14 -3 -6 -6z"/>
<path d="M2167 1789 c7 -7 15 -10 18 -7 3 3 -2 9 -12 12 -14 6 -15 5 -6 -5z"/>
</g>
</svg>
